<?xml version="1.0" encoding="utf-8"?>
<!-- Generator: Adobe Illustrator 22.0.0, SVG Export Plug-In . SVG Version: 6.00 Build 0)  -->
<svg version="1.1" id="Layer_1" xmlns="http://www.w3.org/2000/svg" xmlns:xlink="http://www.w3.org/1999/xlink" x="0px" y="0px"
	 viewBox="0 0 100 24" style="enable-background:new 0 0 100 24;" xml:space="preserve">
<style type="text/css">
	.st0{clip-path:url(#SVGID_2_);}
	.st1{fill:url(#SVGID_3_);}
	.st2{fill:#ADADAD;}
</style>
<g>
	<defs>
		<rect id="SVGID_1_" x="-0.8" y="0" width="99.2" height="24"/>
	</defs>
	<clipPath id="SVGID_2_">
		<use xlink:href="#SVGID_1_"  style="overflow:visible;"/>
	</clipPath>
	<g class="st0">
		
			<radialGradient id="SVGID_3_" cx="-242.0846" cy="392.3936" r="1" gradientTransform="matrix(19.63 0 0 -23.0634 4762.6704 9073.0234)" gradientUnits="userSpaceOnUse">
			<stop  offset="0" style="stop-color:#FF7854"/>
			<stop  offset="1" style="stop-color:#FD267D"/>
		</radialGradient>
		<path class="st1" d="M6.6,9.3c4.4-1.5,5.2-5.5,4.6-9.1c0-0.1,0.1-0.2,0.2-0.2c4.2,2.1,9,6.6,9,13.3c0,5.2-4,9.7-9.8,9.7
			c-2.1,0.1-4.1-0.5-5.8-1.7c-1.7-1.2-3-2.9-3.6-4.9c-0.6-2-0.5-4.1,0.2-6.1c0.7-1.9,2.1-3.6,3.9-4.7c0.1-0.1,0.3,0,0.3,0.1
			C5.6,6.5,5.8,8.3,6.6,9.3L6.6,9.3z"/>
		<path class="st2" d="M32.8,19l0.3-0.4l1,3.1l-0.1,0.1c-0.7,0.7-1.9,1-3.3,1h-0.1c-1.3,0-2.3-0.4-3.1-1.1c-0.7-0.7-1.1-1.8-1.1-3.1
			v-8.6h-2.5V6.7h2.5V2.5h3.9v4.2h3.1v3.5h-3.1v7.7c0,0.4,0.1,1.5,1.2,1.5C32.1,19.4,32.6,19.2,32.8,19L32.8,19z M34.8,22.6V6.7h3.9
			v15.9H34.8z M36.8,0.2c0.5,0,0.9,0.1,1.3,0.4c0.4,0.3,0.7,0.6,0.9,1c0.2,0.4,0.2,0.9,0.1,1.4c-0.1,0.5-0.3,0.9-0.6,1.2
			c-0.3,0.3-0.7,0.6-1.2,0.6c-0.5,0.1-0.9,0-1.4-0.1c-0.4-0.2-0.8-0.5-1.1-0.9c-0.3-0.4-0.4-0.8-0.4-1.3C34.4,1.3,35.5,0.2,36.8,0.2
			z M49.2,6.3c3.4,0,5.2,1.8,5.2,5.2v11.1h-3.9V12.4c-0.1-1.8-0.9-2.6-2.8-2.6c-1.6,0-3,1-3.7,1.9v10.9h-3.9V6.7h3.9v1.7
			C45.2,7.3,47,6.4,49.2,6.3L49.2,6.3z M67.4,8.4V0.9h3.9v21.7h-3.9v-1.6c-0.6,0.6-1.3,1.1-2.1,1.5c-0.8,0.3-1.7,0.5-2.5,0.5
			c-4.3,0-7.1-3.3-7.1-8.3c0-5,2.8-8.3,7.1-8.3c0.9,0,1.7,0.2,2.5,0.5C66.1,7.2,66.8,7.7,67.4,8.4z M67.4,11.7c-0.4-0.6-1-1-1.6-1.4
			c-0.6-0.3-1.3-0.5-2-0.5c-2.4,0-4,1.9-4,4.8c0,2.9,1.6,4.8,4,4.8c1.4,0,2.9-0.7,3.7-1.8V11.7z M80.4,6.3c4.6,0,7.8,3.6,7.8,8.6V16
			H76.4c0.4,2.2,2.2,3.7,4.6,3.7c1.5,0,3.2-0.7,4.1-1.6l0.3-0.2l1.9,2.7L87,20.7c-1.8,1.6-4,2.4-6.4,2.3c-4.9,0-8.3-3.4-8.3-8.3
			c0-1.1,0.1-2.2,0.5-3.2c0.4-1,1-1.9,1.7-2.7C75.4,8,76.3,7.4,77.3,7S79.3,6.3,80.4,6.3L80.4,6.3z M76.4,13.1h8
			c-0.2-2.4-2.2-3.5-4-3.5C77.7,9.6,76.6,11.7,76.4,13.1L76.4,13.1z M97.6,6.3h0.3v3.9l-0.3-0.1c-0.3-0.1-0.6-0.1-1-0.1
			c-1.3,0-3,0.9-3.7,1.8v10.6H89V6.7h3.9v1.8C94.2,7.1,95.9,6.3,97.6,6.3z"/>
	</g>
</g>
</svg>
